<?xml version="1.0" encoding="utf-8"?>
<!-- Generator: Adobe Illustrator 25.2.3, SVG Export Plug-In . SVG Version: 6.00 Build 0)  -->
<svg version="1.1" id="Layer_1" xmlns="http://www.w3.org/2000/svg" xmlns:xlink="http://www.w3.org/1999/xlink" x="0px" y="0px"
	 viewBox="0 0 551 94.5" style="enable-background:new 0 0 551 94.5;" xml:space="preserve">
<style type="text/css">
	.st0{fill:#303130;}
	.st1{fill:#51883E;}
	.st2{fill:#426831;}
	.st3{fill:#231F20;}
</style>
<g>
	<g>
		<path class="st0" d="M225.8,26.4c-1.9,0-3.7-0.1-5.5,0c-1.1,0-1.6-0.2-1.5-1.4c0.1-2.1,0-4.1,0-6.4c2.3,0,4.5,0,6.9,0
			c0-4.2,0-8.2,0-12.3c3.4-0.9,6.6-1.8,10-2.7c0,0.7,0.1,1.2,0.1,1.7c0,3.8,0.1,7.7,0,11.5c0,1.4,0.4,1.7,1.7,1.7
			c2.6-0.1,5.2,0,7.9,0c0,2.6,0,5.1,0,7.8c-3.1,0-6.2,0-9.3,0c-0.1,0.4-0.2,0.6-0.2,0.8c0,6.3,0,12.6,0.2,18.8
			c0.1,3.3,1.7,4.6,5,4.4c1.3-0.1,2.6-0.2,4.1-0.4c0.2,2.6,0.5,5.2,0.7,7.9c-5,1.1-9.8,1.8-14.7,0.3c-2.7-0.8-4.2-2.8-4.8-5.4
			c-0.4-1.7-0.6-3.5-0.6-5.3C225.7,40.5,225.8,33.6,225.8,26.4z"/>
		<path class="st0" d="M341.9,58.8c-3.5,0-6.8,0-10.2,0c0-13.2,0-26.3,0-39.5c3.1,0,6.2,0,9.7,0c-0.2,2.4-0.4,4.8-0.6,7.5
			c2.6-5.5,6.1-9,12.6-8.4c-0.2,3.3-0.3,6.5-0.5,9.9c-0.6-0.1-0.9-0.1-1.3-0.2c-3.8-0.4-6.9,1.2-8.1,4.8c-0.9,2.8-1.4,5.8-1.6,8.7
			c-0.2,5.1-0.1,10.2-0.1,15.3C341.9,57.6,341.9,58.1,341.9,58.8z"/>
		<g>
			<path class="st0" d="M73.9,20c3.2-1,8.7-2.6,13.2-2.6c14.4,0,17.7,6,17.7,15.1v14.9c0,6.1,0.1,8.8,0.3,11.6H93.8l-0.3-5.7h-0.2
				c-0.6,2.5-5.3,6.3-11.2,6.3c-7.6,0-12.7-5-12.7-12.4c0-13.7,16-13.8,20.3-13.8h3.8c0-7.9-5.8-7.9-7.6-7.9
				c-3.1,0-6.5,0.7-11.4,3.6L73.9,20z M93.5,39.2c-5,0-12.7,0.3-12.7,7.2c0,5.3,4.3,5.3,5.3,5.3c1.1,0,7.4-0.2,7.4-10.1V39.2z"/>
		</g>
		<g>
			<path class="st0" d="M217.1,41.8H193c0,4.9,3.1,9.4,10.1,9.4c4.2,0,8.5-1.6,11.6-3.2l0.2,9.4c-4,1.5-8.7,2.4-13,2.4
				c-14.4,0-20.8-8.7-20.8-21.2c0-11,6.4-21,18.2-21c3.7,0,17.8,0,17.8,21.4V41.8z M205.8,35c0-5.2-1.3-10.1-6.4-10.1
				c-6.4,0-6.4,7.9-6.4,10.1H205.8z"/>
		</g>
		<g>
			<path class="st0" d="M286.9,41.8h-24.1c0,4.9,3.1,9.4,10.1,9.4c4.2,0,8.5-1.6,11.6-3.2l0.2,9.4c-4,1.5-8.7,2.4-13,2.4
				c-14.4,0-20.8-8.7-20.8-21.2c0-11,6.4-21,18.2-21c3.7,0,17.8,0,17.8,21.4V41.8z M275.6,35c0-5.2-1.3-10.1-6.4-10.1
				c-6.4,0-6.4,7.9-6.4,10.1H275.6z"/>
		</g>
		<g>
			<path class="st0" d="M326.8,41.8h-24.1c0,4.9,3.1,9.4,10.1,9.4c4.2,0,8.5-1.6,11.6-3.2l0.2,9.4c-4,1.5-8.7,2.4-13,2.4
				c-14.4,0-20.8-8.7-20.8-21.2c0-11,6.4-21,18.2-21c3.7,0,17.8,0,17.8,21.4V41.8z M315.5,35c0-5.2-1.3-10.1-6.4-10.1
				c-6.4,0-6.4,7.9-6.4,10.1H315.5z"/>
		</g>
		<g>
			<path class="st0" d="M384,27c-1.6-0.6-3.2-1.1-4.6-1.3c-1.5-0.3-3.1-0.4-4.8-0.4c-0.7,0-1.4,0.1-2.2,0.2c-0.7,0.1-1.4,0.4-2,0.7
				c-0.6,0.3-1.1,0.8-1.5,1.4c-0.4,0.6-0.6,1.3-0.6,2.2c0,0.8,0.3,1.4,0.8,1.9c0.5,0.5,1.2,0.9,2.1,1.3c0.9,0.4,1.8,0.7,2.9,1
				c1.1,0.3,2.2,0.7,3.4,1.1c1.1,0.4,2.3,0.9,3.4,1.5s2.1,1.3,2.9,2.2c0.9,0.9,1.5,2,2.1,3.3c0.5,1.3,0.8,2.9,0.8,4.8
				c0,2.4-0.5,4.4-1.5,6.1c-1,1.7-2.3,3-3.9,4.1c-1.6,1.1-3.4,1.8-5.5,2.3c-2,0.5-4.1,0.7-6.2,0.7c-2,0-4-0.2-6-0.5
				c-2-0.3-4-0.7-5.9-1.3l0.6-8.7c3.3,1.8,6.8,2.7,10.4,2.7c0.8,0,1.5-0.1,2.3-0.3c0.8-0.2,1.5-0.5,2.2-0.9c0.7-0.4,1.2-0.9,1.7-1.5
				c0.4-0.6,0.6-1.4,0.6-2.3c0-0.4-0.1-0.9-0.2-1.4c-0.1-0.5-0.3-0.9-0.6-1.2c-0.4-0.5-1-1-1.7-1.3c-0.7-0.3-1.5-0.7-2.4-1
				c-0.9-0.3-1.9-0.6-2.9-0.8c-1-0.3-2-0.6-3-1c-1-0.4-2-0.9-2.9-1.4c-0.9-0.6-1.7-1.2-2.4-2c-0.7-0.8-1.2-1.8-1.7-2.9
				c-0.4-1.1-0.6-2.5-0.6-4.1c0-2.2,0.5-4.1,1.4-5.7c0.9-1.6,2.1-2.9,3.6-3.9c1.5-1,3.2-1.8,5.1-2.2c1.9-0.5,3.8-0.7,5.8-0.7
				c2,0,3.9,0.1,5.8,0.4c1.9,0.2,3.8,0.6,5.7,1.1L384,27z"/>
		</g>
		<g>
			<path class="st1" d="M413.6,4.1h11v22.2h22V4.1h11V59h-11V34.9h-22V59h-11V4.1z"/>
			<path class="st1" d="M503.5,59h-10v-5.5h-0.2c-1.6,2.1-3.6,3.7-5.9,4.8c-2.3,1.1-4.7,1.7-7.4,1.7c-2.4,0-4.5-0.4-6.2-1.2
				c-1.7-0.8-3.2-1.9-4.3-3.4c-1.1-1.4-2-3.1-2.5-5c-0.5-1.9-0.8-4-0.8-6.2V18.5h10.6v21.6c0,0.3,0,0.6,0.1,0.9
				c0,0.3,0.1,0.6,0.1,0.9c0.1,1,0.1,2,0.2,2.9c0,1,0.2,1.9,0.6,2.9c0.5,1.3,1.2,2.3,2.3,3c1,0.7,2.2,1,3.6,1c1.8,0,3.3-0.4,4.5-1.3
				c1.2-0.8,2.2-1.9,2.9-3.2c0.7-1.3,1.2-2.8,1.5-4.4c0.3-1.6,0.4-3.1,0.4-4.6V18.5h10.5V59z"/>
			<path class="st1" d="M511.2,0h10.6v23.7h0.2c1.5-2.1,3.2-3.6,5.2-4.6c2-1,4.3-1.5,6.9-1.5c3.1,0,5.8,0.6,8,1.7
				c2.2,1.2,3.9,2.7,5.3,4.6c1.3,1.9,2.3,4.2,2.9,6.7c0.6,2.5,0.9,5.2,0.9,8c0,2.8-0.3,5.4-0.9,8c-0.6,2.6-1.6,4.8-2.9,6.8
				c-1.3,2-3.1,3.6-5.3,4.7c-2.2,1.2-4.8,1.8-7.9,1.8c-2.5,0-4.8-0.5-6.9-1.5c-2.1-1-4-2.5-5.5-4.5h-0.2v5h-10.3V0z M531.3,25.7
				c-1.7,0-3.2,0.4-4.4,1.2c-1.2,0.8-2.2,1.9-2.9,3.1c-0.7,1.3-1.3,2.7-1.6,4.2c-0.3,1.5-0.5,3.1-0.5,4.5c0,1.4,0.2,2.8,0.5,4.3
				c0.4,1.5,0.9,2.9,1.7,4.2c0.7,1.3,1.7,2.3,2.9,3.1c1.2,0.8,2.6,1.2,4.2,1.2c1.7,0,3.1-0.4,4.3-1.3c1.2-0.8,2.1-1.9,2.7-3.2
				c0.7-1.3,1.2-2.7,1.4-4.2c0.3-1.5,0.4-3,0.4-4.4c0-1.4-0.1-2.9-0.4-4.4c-0.3-1.5-0.7-2.9-1.4-4.2c-0.7-1.3-1.5-2.3-2.7-3.1
				C534.5,26.1,533,25.7,531.3,25.7z"/>
		</g>
		<g>
			<path class="st0" d="M155.1,59h-12.4V0h12.4V59z"/>
		</g>
		<polygon class="st0" points="10.5,59.1 0,59.1 8.3,5.2 20.2,5.2 32.7,44.3 44.8,5.1 57,5.1 65.4,59.1 54.7,59.2 48.9,20 
			37.2,59.2 26.6,59.2 15.2,19.9 		"/>
		<path class="st1" d="M136.9,25.8c-2.2-0.2-4.3-0.5-6.4-0.5c-5.1-0.1-7.8,2.4-8.4,7.4c-0.2,1.6-0.3,3.2-0.3,4.8
			c0,6.6,0,13.2,0,19.8c0,0.6,0,1.2,0,1.9c-3.4,0-6.7,0-10.1,0c-0.1-0.4-0.2-0.7-0.2-1.1c0-8-0.2-16,0.1-24c0.1-2.8,1-5.8,2.1-8.4
			c2.2-4.9,6.6-7.1,11.6-8c4-0.7,8.1-0.7,12.3,0.3C137.4,20.7,137.1,23.2,136.9,25.8z"/>
		<g>
			<path class="st1" d="M155.4,37.2v-2.7l4.4-7.1l5.8-9.3h12.9l-12.7,19.2"/>
		</g>
		<g>
			<path class="st2" d="M165.7,36.9l13,22.4h-13.1l-10.3-20v-2.7"/>
		</g>
	</g>
	<g>
		<path class="st3" d="M12.2,86.8H4.6l-1.2,2.8H0.6L8,72.5h0.9l7.4,17.1h-2.9L12.2,86.8z M8.4,77.5l-2.8,7h5.6L8.4,77.5z"/>
		<path class="st3" d="M25.9,84.4c1.1,1.5,2.3,2.4,4.1,2.4c1.5,0,2.4-0.7,2.4-1.9c0-1-0.5-1.4-2.1-2.1l-1.8-0.8
			c-2.6-1.1-4.1-2.6-4.1-4.8c0-2.9,2.4-4.8,5.6-4.8c2.6,0,4.5,1.2,5.6,3.2l-2.3,1.8c-0.9-1.3-1.9-1.9-3.2-1.9
			c-1.2,0-2.1,0.6-2.1,1.6c0,0.9,0.5,1.3,2,1.9l1.9,0.8c2.8,1.2,4.2,2.7,4.2,4.9c0,3.1-2.5,5-5.9,5c-2.9,0-5.2-1.5-6.5-3.7
			L25.9,84.4z"/>
		<path class="st3" d="M55.4,72.5v17.1H52v-9l-4.2,5.3h-1.1l-4.2-5.3v9h-3.4V72.5h1.1l7.1,9.1l7.1-9.1H55.4z"/>
		<path class="st3" d="M69.2,87.4h-6.9l-0.9,2.2h-3.7l7.5-17.1h1.1l7.5,17.1h-3.7L69.2,87.4z M65.8,78.9l-2.2,5.7H68L65.8,78.9z"/>
		<path class="st3" d="M86.5,89.6l-4.4-5.9h-2.5v5.9h-3.4V72.8h6.3c3.5,0,6.1,2.2,6.1,5.4c0,2.1-1.1,3.9-3,4.8l4.8,6.6H86.5z
			 M79.6,80.6h2.9c1.6,0,2.6-1,2.6-2.4c0-1.4-1-2.4-2.6-2.4h-2.9V80.6z"/>
		<path class="st3" d="M95.6,75.9h-5.4v-3.1h14.2v3.1h-5.4v13.7h-3.4V75.9z"/>
		<path class="st3" d="M112.6,72.8h3.4v16.8h-3.4V72.8z"/>
		<path class="st3" d="M134.2,72.8v17.1h-1.1l-9.7-10.4v10.1h-3.4V72.5h1.1l9.8,10.4v-10H134.2z"/>
		<path class="st3" d="M138.1,72.8h11.1v3.1h-7.6v4.2h6.2v3.1h-6.2v6.4h-3.4V72.8z"/>
		<path class="st3" d="M151.7,72.8h3.4v13.7h7.4v3.1h-10.8V72.8z"/>
		<path class="st3" d="M164.7,72.8h3.4v10.1c0,2.4,1.5,3.8,3.7,3.8c2.2,0,3.7-1.4,3.7-3.8V72.8h3.4v9.9c0,4.5-3.1,7.3-7.1,7.3
			c-4.1,0-7.1-2.8-7.1-7.3V72.8z"/>
		<path class="st3" d="M182.7,72.8H194v3.1h-7.9v3.4h5.8v2.9h-5.8v4.3h8.2v3.1h-11.6V72.8z"/>
		<path class="st3" d="M211.6,72.8v17.1h-1.1l-9.7-10.4v10.1h-3.4V72.5h1.1l9.8,10.4v-10H211.6z"/>
		<path class="st3" d="M223.5,72.5c3.2,0,5.9,1.6,7.4,4.2l-2.6,1.8c-1.2-1.9-2.8-2.8-4.8-2.8c-3.1,0-5.4,2.3-5.4,5.6
			s2.3,5.5,5.4,5.5c2,0,3.6-0.9,4.8-2.8l2.6,1.8c-1.5,2.6-4.2,4.2-7.4,4.2c-4.9,0.1-9.1-3.9-9-8.7C214.4,76.4,218.6,72.4,223.5,72.5
			z"/>
		<path class="st3" d="M233.8,72.8h11.3v3.1h-7.9v3.4h5.8v2.9h-5.8v4.3h8.2v3.1h-11.6V72.8z"/>
		<path class="st3" d="M263.6,72.5c3.1,0,5.8,1.5,7.2,3.9l-2,1.5c-1.2-1.9-2.9-2.9-5.2-2.9c-3.4,0-6.1,2.7-6.1,6.2
			c0,3.6,2.6,6.2,6.1,6.2c2.2,0,4-1,5.2-2.9l2,1.5c-1.4,2.4-4.1,3.9-7.2,3.9c-4.8,0.1-9-3.9-8.8-8.7
			C254.6,76.4,258.8,72.4,263.6,72.5z"/>
		<path class="st3" d="M279.4,76.8c3.6-0.1,6.7,3,6.7,6.5c0.1,3.5-3,6.6-6.7,6.6c-3.6,0.1-6.7-3-6.6-6.6
			C272.7,79.8,275.8,76.8,279.4,76.8z M279.4,79.3c-2.2,0-3.9,1.8-3.9,4.1c0,2.3,1.7,4.1,3.9,4.1c2.2,0,3.9-1.8,3.9-4.1
			C283.3,81.1,281.6,79.3,279.4,79.3z"/>
		<path class="st3" d="M307.9,89.6h-2.7v-7.4c0-1.8-1-2.9-2.6-2.9c-1.6,0-2.8,1.2-2.8,2.8v7.6h-2.7v-7.4c0-1.7-1-2.9-2.6-2.9
			c-1.6,0-2.8,1.2-2.8,2.9v7.4h-2.7V77.1h2.5v1.2c0.9-0.9,2.1-1.5,3.6-1.5c1.7,0,3.1,0.7,3.8,2c0.9-1.2,2.5-2,4.2-2
			c2.9,0,4.6,2,4.6,5V89.6z"/>
		<path class="st3" d="M318.5,89.9c-1.7,0-3.2-0.7-4.2-1.8v6.1h-2.7V77.1h2.5v1.8c0.9-1.3,2.5-2,4.4-2c3.5,0,6.1,2.8,6.1,6.5
			C324.6,87.1,322,89.9,318.5,89.9z M318.1,79.3c-2,0-3.8,1.4-3.8,4.1c0,2.8,1.8,4.1,3.8,4.1c2.1,0,3.8-1.7,3.8-4.1
			C321.9,81,320.2,79.3,318.1,79.3z"/>
		<path class="st3" d="M337.7,89.6h-2.5v-1.4c-0.9,1.1-2.3,1.7-4,1.7c-2.6,0-4.4-1.5-4.4-3.6s1.8-3.6,4.6-3.6h3.5v-0.8
			c0-1.7-1-2.7-2.7-2.7c-1.4,0-2.4,0.6-3.5,1.9l-1.6-1.6c1.2-1.8,3.1-2.7,5.3-2.7c3.1,0,5.1,1.9,5.1,5.2V89.6z M335,84.6h-3.2
			c-1.4,0-2.2,0.5-2.2,1.5c0,1,0.9,1.7,2.2,1.7c1.8,0,3.2-1.2,3.2-3V84.6z"/>
		<path class="st3" d="M352.3,89.6h-2.7v-7.5c0-1.7-1.1-2.9-2.7-2.9c-1.7,0-2.9,1.2-2.9,2.9v7.5h-2.7V77.1h2.5v1.2
			c0.9-1,2.2-1.5,3.7-1.5c2.9,0,4.7,2,4.7,5V89.6z"/>
		<path class="st3" d="M367.6,77.1L361.5,91c-1,2.4-2.4,3.4-4.6,3.4c-0.7,0-1.4-0.1-2.1-0.3V92c0.8,0.1,1.3,0.1,1.5,0.1
			c1.2,0,2.1-0.4,2.7-1.8l0.5-1.2l-5-12h2.9l3.6,9.1l3.7-9.1H367.6z"/>
	</g>
</g>
</svg>
